<svg width="38" height="20" viewBox="0 0 38 20" fill="none" xmlns="http://www.w3.org/2000/svg">
<g clip-path="url(#clip0_13_110)">
<path d="M27.4944 20H14.2699C13.0858 20 12.1233 19.0311 12.1233 17.8408C12.1233 16.6504 13.0865 15.6815 14.2699 15.6815H27.4944C28.6786 15.6815 29.6411 16.6504 29.6411 17.8408C29.6411 19.0311 28.6779 20 27.4944 20ZM14.2699 16.5697C13.5732 16.5697 13.007 17.1399 13.007 17.8401C13.007 18.5402 13.5739 19.1105 14.2699 19.1105H27.4944C28.1912 19.1105 28.7574 18.5402 28.7574 17.8401C28.7574 17.1399 28.1905 16.5697 27.4944 16.5697H14.2699Z" fill="white"/>
<path d="M26.6747 17.4435H16.2956C16.0801 17.4435 15.9055 17.6192 15.9055 17.8359V17.8366C15.9055 18.0534 16.0801 18.2291 16.2956 18.2291H26.6747C26.8902 18.2291 27.0649 18.0534 27.0649 17.8366V17.8359C27.0649 17.6192 26.8902 17.4435 26.6747 17.4435Z" fill="white"/>
<path d="M14.4922 18.4343C14.8181 18.4343 15.0823 18.1686 15.0823 17.8408C15.0823 17.513 14.8181 17.2473 14.4922 17.2473C14.1664 17.2473 13.9022 17.513 13.9022 17.8408C13.9022 18.1686 14.1664 18.4343 14.4922 18.4343Z" fill="white"/>
<path d="M25.759 16.5697H15.9054C15.6614 16.5697 15.4636 16.3707 15.4636 16.1252V14.1916C15.4636 13.9462 15.6614 13.7472 15.9054 13.7472H25.759C26.0031 13.7472 26.2009 13.9462 26.2009 14.1916V16.1252C26.2009 16.3707 26.0031 16.5697 25.759 16.5697ZM16.3472 15.6808H25.3172V14.6361H16.3472V15.6808Z" fill="white"/>
<path d="M36.2843 20H32.076C31.6899 20 31.3738 19.7334 31.3065 19.3512C31.2392 18.9689 31.4452 18.6086 31.8075 18.4753L32.3608 18.2715L28.1858 14.5233C28.092 14.4392 28.0383 14.3182 28.0383 14.1917V11.4424C28.0383 11.2653 28.1423 11.1053 28.3041 11.0349C28.4652 10.9637 28.6528 10.9966 28.7812 11.1169L36.8172 18.638C37.0538 18.8595 37.1306 19.1987 37.0123 19.5016C36.894 19.8045 36.6085 20 36.285 20H36.2843ZM32.6504 19.1112H36.0246L28.9213 12.4632V13.9934L33.4987 18.1026C33.6142 18.2066 33.6679 18.3645 33.6387 18.5177C33.6095 18.6708 33.5028 18.798 33.3566 18.8513L32.651 19.1112H32.6504Z" fill="white"/>
<path d="M13.4767 8.34638L7.24408 0.277597C7.10813 0.101193 6.90216 0 6.68056 0H2.1514C0.963203 0 0 0.968856 0 2.16403V6.16389C0 6.38474 0.0747723 6.60353 0.224997 6.76421C0.51389 7.07395 0.962523 7.11976 1.29832 6.90985L4.79562 4.72121C4.79562 4.72121 4.80106 4.72052 4.80242 4.72257L12.3633 13.8922C12.5026 14.0611 12.7018 14.1527 12.9091 14.1527C12.9839 14.1527 13.0593 14.1411 13.1334 14.1164C13.4339 14.018 13.6262 13.7219 13.6262 13.404V8.78671C13.6262 8.62808 13.5732 8.4715 13.476 8.34638H13.4767ZM5.91925 4.66993L8.95636 4.92906C8.96112 4.92906 8.96316 4.93522 8.95976 4.93863L7.36371 6.42713C7.36371 6.42713 7.35759 6.42918 7.35555 6.42713L5.91449 4.6795C5.91109 4.67608 5.91449 4.66993 5.91925 4.67061V4.66993ZM8.39421 6.67806L9.94472 5.23196C9.94472 5.23196 9.95083 5.22991 9.95287 5.23196L11.1819 6.8237C11.1846 6.82712 11.1819 6.83259 11.1771 6.83259L8.39693 6.68695C8.39217 6.68695 8.39013 6.6808 8.39353 6.67738L8.39421 6.67806ZM10.9467 7.72076L9.44102 8.94739C9.44102 8.94739 9.43558 8.94875 9.43354 8.9467L8.30856 7.58196C8.30584 7.57854 8.30856 7.57307 8.31332 7.57307L10.9439 7.7105C10.9487 7.7105 10.9507 7.71734 10.9473 7.72008L10.9467 7.72076ZM9.02637 4.03405C9.02909 4.03747 9.02638 4.04294 9.02162 4.04294L4.93021 3.69355C4.9003 3.69081 4.8704 3.69286 4.84049 3.69628C4.81534 3.69355 4.79018 3.69218 4.76503 3.69218H2.11402C2.10858 3.69218 2.10654 3.68466 2.1113 3.68193L6.6962 1.02492C6.6962 1.02492 6.70164 1.02424 6.703 1.02629L9.02637 4.03405ZM0.883673 6.11261V4.58651C0.883673 4.58651 0.886392 4.58104 0.889111 4.58104H3.32805C3.33348 4.58104 3.33552 4.58856 3.33077 4.5913L0.89183 6.1174C0.888431 6.11945 0.883673 6.1174 0.883673 6.11261ZM12.7337 12.9486L10.0052 9.63933C10.0052 9.63933 10.0039 9.63386 10.0059 9.63181L12.054 7.9628C12.054 7.9628 12.0601 7.96144 12.0615 7.96349L12.7419 8.84414C12.7419 8.84414 12.7432 8.84619 12.7432 8.84756V12.9452C12.7432 12.95 12.7371 12.9527 12.7337 12.9486Z" fill="white"/>
<path d="M33.8766 11.8867H28.4794C28.2354 11.8867 28.0376 11.6878 28.0376 11.4423V8.693C28.0376 8.53848 28.1171 8.39489 28.2483 8.31421C28.3788 8.23353 28.5427 8.22669 28.6793 8.29643L34.0765 11.0457C34.2587 11.1387 34.3538 11.3452 34.3069 11.5456C34.26 11.7459 34.0819 11.8867 33.8773 11.8867H33.8766ZM28.9213 10.9979H32.0264L28.9213 9.41571V10.9979Z" fill="white"/>
<path d="M36.081 11.8868H33.8773C33.8079 11.8868 33.7393 11.8704 33.6774 11.839L30.9788 10.464C30.8524 10.3997 30.7647 10.278 30.7423 10.1378C30.7198 9.99696 30.766 9.85406 30.866 9.75355L33.3477 7.25723C33.4307 7.17381 33.5428 7.12732 33.6604 7.12732H36.0817C36.6255 7.12732 37.0673 7.57175 37.0673 8.11874V10.8961C37.0673 11.4431 36.6255 11.8875 36.0817 11.8875L36.081 11.8868ZM33.9819 10.998H36.0803C36.1367 10.998 36.1823 10.9521 36.1823 10.8954V8.11805C36.1823 8.0613 36.1367 8.01549 36.0803 8.01549H33.8426L31.9216 9.94774L33.9826 10.9973L33.9819 10.998Z" fill="white"/>
<path d="M28.0715 3.69214H16.1984C14.2931 3.69214 12.7432 5.25106 12.7432 7.16758V13.7814C12.7432 14.2525 13.1246 14.636 13.5929 14.636H22.0456V16.1252H22.9293V15.6028H24.2391V16.1252H25.1228V14.636H28.0715C28.5399 14.636 28.9212 14.2525 28.9212 13.7814V4.54681C28.9212 4.07572 28.5399 3.69214 28.0715 3.69214ZM13.6269 7.16758C13.6269 5.7413 14.7804 4.581 16.1984 4.581H20.44V8.24856H13.6269V7.16758ZM22.0456 13.7472H13.6269V12.9363H14.6472C14.8348 12.9363 14.9871 12.7831 14.9871 12.5944C14.9871 12.4057 14.8348 12.2525 14.6472 12.2525H13.6269V11.7835H16.0074C16.195 11.7835 16.3472 11.6303 16.3472 11.4416C16.3472 11.2529 16.195 11.0997 16.0074 11.0997H13.6269V10.548H18.292C18.4796 10.548 18.6319 10.3948 18.6319 10.2061C18.6319 10.0174 18.4796 9.86424 18.292 9.86424H13.6269V9.13605H20.6283L21.979 11.4621L22.0184 11.5298C22.0265 11.5442 22.0367 11.5565 22.0456 11.5702V13.7465V13.7472ZM24.2391 14.714H22.9293V14.636H24.2391V14.714ZM24.2391 13.7472H22.9293V13.4053H24.2391V13.7472ZM24.2391 12.5165H22.9293V11.8867H24.2391V12.5165ZM28.0376 13.7472H25.1228V11.8867H28.0376V13.7472ZM22.7321 10.9979L21.3815 8.6718L21.3237 8.57197V4.58031H22.6574V8.69231C22.6574 8.93777 22.8552 9.13674 23.0992 9.13674H28.0376V10.9972H22.7321V10.9979Z" fill="white"/>
</g>
<defs>
<clipPath id="clip0_13_110">
<rect width="37.0667" height="20" fill="white"/>
</clipPath>
</defs>
</svg>
